<svg width="149" height="50" viewBox="0 0 149 50" xmlns="http://www.w3.org/2000/svg"><g fill="none" fill-rule="evenodd"><path d="M62.18 45.828c0 1.03-.37 1.844-1.114 2.438-.742.593-1.774.89-3.097.89-1.22 0-2.298-.23-3.236-.687v-2.25c.77.343 1.424.585 1.957.725.535.14 1.024.21 1.466.21.532 0 .94-.1 1.223-.303.283-.204.425-.506.425-.907 0-.224-.063-.423-.188-.597-.125-.175-.308-.343-.55-.504-.243-.162-.736-.42-1.48-.774-.7-.328-1.222-.643-1.57-.945-.35-.302-.63-.654-.837-1.055-.21-.4-.313-.87-.313-1.406 0-1.01.343-1.805 1.028-2.383.684-.577 1.63-.866 2.84-.866.593 0 1.16.07 1.7.21.538.142 1.1.34 1.69.595l-.78 1.882c-.61-.25-1.115-.425-1.513-.524-.398-.1-.79-.148-1.176-.148-.458 0-.81.106-1.054.32-.245.214-.368.492-.368.836 0 .213.05.4.15.56.098.157.255.31.47.46.218.148.73.415 1.537.8 1.068.51 1.8 1.022 2.196 1.535.396.514.594 1.143.594 1.888zM68.656 49h-2.422v-9.406h-3.1v-2.016h8.624v2.016h-3.102V49zm8.414-6.72l2.383-4.702h2.61l-3.79 6.977V49h-2.406v-4.367l-3.79-7.055h2.626l2.367 4.703zM83.5 49V37.578h2.422V47h4.633v2H83.5zm15.617 0H92.54V37.578h6.577v1.984H94.96v2.508h3.868v1.985H94.96V47h4.157v2zm6.72-6.414h4.53v5.922c-.734.24-1.426.407-2.074.504-.648.096-1.31.144-1.988.144-1.724 0-3.04-.506-3.95-1.52-.908-1.012-1.363-2.467-1.363-4.363 0-1.843.528-3.28 1.582-4.312 1.055-1.03 2.517-1.546 4.387-1.546 1.173 0 2.303.234 3.392.703l-.805 1.938c-.833-.417-1.7-.625-2.602-.625-1.047 0-1.885.35-2.515 1.054-.63.704-.946 1.65-.946 2.836 0 1.24.254 2.187.762 2.84.508.654 1.246.98 2.215.98.506 0 1.02-.05 1.54-.156v-2.382h-2.164v-2.016zm16.546-5.008v7.39c0 .845-.19 1.584-.567 2.22-.377.635-.923 1.122-1.636 1.46-.714.34-1.558.508-2.532.508-1.468 0-2.61-.376-3.42-1.13-.814-.75-1.22-1.78-1.22-3.09V37.58h2.414v6.992c0 .88.177 1.526.53 1.938.355.41.94.617 1.76.617.79 0 1.365-.207 1.722-.62.356-.415.535-1.065.535-1.95v-6.977h2.413zM125.18 49V37.578h2.422V49h-2.422zm14.773-5.82c0 1.88-.535 3.32-1.605 4.32-1.07 1-2.616 1.5-4.637 1.5h-3.233V37.578h3.585c1.865 0 3.313.492 4.344 1.477 1.032.984 1.547 2.36 1.547 4.125zm-2.516.062c0-2.453-1.083-3.68-3.25-3.68h-1.29V47h1.04c2.334 0 3.5-1.253 3.5-3.758zM148.898 49h-6.577V37.578h6.578v1.984h-4.156v2.508h3.867v1.985h-3.868V47h4.156v2z" fill="#38495B"/><g fill="#0084C0"><path d="M22.61 28.238L27.043.06h3.6L26.208 28.24h-3.6M44.595 27.695c-.852 5.485-4.025 8.344-9.018 8.344-3.057 0-5.456-1.137-7.082-3.057l2.013-2.507c1.393 1.646 3.057 2.43 5.03 2.43 3.02 0 4.877-1.764 5.458-5.21l.232-1.372h-.078c-1.625 1.528-3.52 2.35-5.61 2.35-3.87 0-5.73-1.958-5.73-5.68 0-.704.078-1.45.195-2.272l1.816-11.59h3.56l-1.776 11.59c-.117.627-.155 1.136-.155 1.606 0 2.116.928 3.174 3.018 3.174 2.167 0 4.102-1.332 5.418-3.644l2.01-12.727h3.6l-2.9 18.565M85.096 12.578l.76-3.518H82.31l-3.02 19.227h3.6l1.598-10.32c.706-3.785 3.477-5.663 6.413-5.663.358 0 .62 0 .905.03l.537-3.42c-3.394-.533-5.94 1.214-7.246 3.664M71.53 9.13l-5.905 13.303-2.1-13.302H60.03L53.96 22.434l-2-13.302h-3.643l3.065 19.228h3.697l5.938-13.326 2.068 13.326h3.663L75.307 9.13h-3.78M72.786 28.358L75.804 9.13h3.6l-3.02 19.228h-3.598"/><path d="M94.214 16.656c.58-3.255 2.56-5.048 5.573-5.048 2.21 0 3.636 1.062 3.636 2.705 0 2.016-1.414 2.956-4.45 2.956h-4.87l.11-.614zm3.014 8.807c-1.32.026-2.33-.364-2.998-1.157-.702-.834-.89-2.206-.59-4.08h5.26c1.59 0 3.732-.216 5.45-1.273 1.684-1.036 2.54-2.62 2.54-4.71 0-1.45-.618-2.873-1.69-3.904-1.25-1.2-3.04-1.834-5.172-1.834-7.803 0-8.755 5.602-9.52 10.104l-.272 1.718c-.33 2.4.112 4.336 1.35 5.92 1.15 1.473 3.118 2.285 5.544 2.285 7.855 0 8.567-6.685 8.567-6.685h-3.307s-.158 3.514-5.162 3.615zM12.87 17.795L11.11 28.31c-.468 2.894-1.894 4.03-4.545 4.028H6.39l-.55 3.535.27.002c4.71.006 7.846-2.66 8.582-7.32l2.71-16.21h4.958l.526-3.348H17.92l.23-1.467c.47-2.91 1.96-4.215 4.564-4.212l2.41.004.506-3.26h-2.573c-4.684-.007-7.77 2.676-8.506 7.334l-.25 1.6H1.458L.93 12.345h12.85l-.35 2.104H.527L0 17.795h12.87zM80.323 5.274c0 1.152-.924 2.086-2.065 2.086-1.14 0-2.065-.934-2.065-2.086 0-1.152.924-2.085 2.065-2.085 1.14 0 2.065.932 2.065 2.084"/></g></g></svg>
