<?xml version="1.0" encoding="UTF-8" standalone="no"?>
<svg width="116px" height="39px" viewBox="0 0 116 39" version="1.1" xmlns="http://www.w3.org/2000/svg" xmlns:xlink="http://www.w3.org/1999/xlink">
    <!-- Generator: Sketch 3.8.3 (29802) - http://www.bohemiancoding.com/sketch -->
    <title>logo</title>
    <desc>Created with Sketch.</desc>
    <defs></defs>
    <g id="Page-1" stroke="none" stroke-width="1" fill="none" fill-rule="evenodd">
        <g id="Desktop-HD" transform="translate(-289.000000, -40.000000)" fill="#0084C0">
            <g id="Footer">
                <g id="logo" transform="translate(289.000000, 40.000000)">
                    <g id="Group-Copy-2">
                        <polyline id="Fill-25" points="24.5254044 30.2315721 29.3333915 0 33.2372984 0 28.4293112 30.2315721 24.5254044 30.2315721"></polyline>
                        <path d="M48.3724966,29.649673 C47.4489303,35.5337671 44.0066386,38.6016574 38.5912277,38.6016574 C35.2749227,38.6016574 32.6722062,37.3831593 30.9087288,35.3233572 L33.0918258,32.6333322 C34.6033298,34.3988289 36.4081308,35.2394617 38.5492322,35.2394617 C41.8235417,35.2394617 43.8386564,33.3481218 44.4685897,29.649673 L44.7202271,28.1784817 L44.636236,28.1784817 C42.8734305,29.8177995 40.8163203,30.7003801 38.5492322,30.7003801 C34.3513565,30.7003801 32.3362417,28.5989659 32.3362417,24.6062117 C32.3362417,23.84981 32.4202328,23.0511249 32.5462195,22.1682087 L34.516651,9.73187686 L38.3782263,9.73187686 L36.4501263,22.1682087 C36.3241397,22.840715 36.2824801,23.3870424 36.2824801,23.8914221 C36.2824801,26.1612985 37.2897015,27.2962367 39.5567896,27.2962367 C41.9075328,27.2962367 44.0066386,25.8669931 45.4338156,23.3870424 L47.6142248,9.73187686 L51.5181316,9.73187686 L48.3724966,29.649673" id="Fill-26"></path>
                        <path d="M92.3042151,13.4297618 L93.1300157,9.65547144 L89.281879,9.65547144 L86.0068976,30.2840302 L89.9111404,30.2840302 L91.6450528,19.2108322 C92.4110518,15.1506261 95.4169257,13.1364631 98.6011967,13.1364631 C98.9885637,13.1364631 99.2711098,13.1371343 99.5822128,13.1670011 L100.164439,9.49976141 C96.4832768,8.92692301 93.7209771,10.8011483 92.3042151,13.4297618" id="Fill-27"></path>
                        <polyline id="Fill-28" points="77.5879646 9.73187686 71.1844823 24.0038421 68.9052995 9.73187686 65.1173004 9.73187686 58.5310534 24.0038421 56.3600512 9.73187686 52.4104532 9.73187686 55.7344854 30.3604356 59.744557 30.3604356 66.1863392 16.0626306 68.4299098 30.3604356 72.4036972 30.3604356 81.6877387 9.73187686 77.5879646 9.73187686"></polyline>
                        <polyline id="Fill-29" points="78.9516442 30.3604356 82.2256177 9.73187686 86.1301965 9.73187686 82.8555511 30.3604356 78.9516442 30.3604356"></polyline>
                        <path d="M102.19495,17.8056433 C102.824547,14.3129062 104.97136,12.389686 108.240294,12.389686 C110.636056,12.389686 112.18418,13.5286512 112.18418,15.2914632 C112.18418,17.4549601 110.650167,18.4627127 107.356371,18.4627127 L102.072995,18.4627127 L102.19495,17.8056433 L102.19495,17.8056433 Z M105.464556,27.2542889 C104.033011,27.2828134 102.935751,26.8640071 102.211748,26.0129713 C101.450452,25.1183098 101.24585,23.6457761 101.573751,21.6359758 L107.279436,21.6359758 C109.001589,21.6359758 111.325791,21.403753 113.18905,20.2701572 C115.016697,19.1580386 115.943287,17.4573092 115.943287,15.2149505 C115.943287,13.6598637 115.274717,12.133637 114.109929,11.0272232 C112.754648,9.74060199 110.815125,9.06071294 108.501674,9.06071294 C100.037722,9.06071294 99.0049673,15.0709859 98.1751351,19.9020238 L97.8794864,21.7447043 C97.5230281,24.3189535 98.0017775,26.396877 99.3432835,28.0965997 C100.590719,29.6775263 102.726781,30.5483615 105.358055,30.5483615 C113.878113,30.5483615 114.650831,23.3763038 114.650831,23.3763038 L111.063403,23.3763038 C111.063403,23.3763038 110.892397,27.1465671 105.464556,27.2542889 L105.464556,27.2542889 Z" id="Fill-30"></path>
                        <path d="M14.5661607,15.4367702 L14.948066,13.1786487 L1.00789333,13.1786487 L1.58071271,9.58825727 L15.5121503,9.58825727 L15.7836096,7.87007763 C16.5815251,2.87259107 19.9290748,-0.00603098786 25.0098651,9.48743291e-06 L27.8010577,9.48743291e-06 L27.2527637,3.49912259 L24.6382884,3.49509561 C21.8128275,3.49173979 20.1988543,4.89178773 19.6878524,8.01404229 L19.4385667,9.58825727 L24.8250847,9.58825727 L24.2542811,13.1786487 L18.8748184,13.1786487 L15.9364734,30.573204 C15.1378859,35.5710262 11.7365819,38.4318624 6.62790654,38.4254863 L6.33393765,38.4234728 L6.93027454,34.6320678 L7.12110235,34.6303899 C9.99695798,34.6337457 11.5430664,33.4145765 12.0510446,30.3080943 L13.9588781,19.0274972 L0,19.0274972 L0.572819376,15.4367702 L5.45841431,15.4367702 L14.5661607,15.4367702 Z" id="Fill-32"></path>
                        <path d="M87.1276749,5.59348012 C87.1276749,6.8290929 86.1244851,7.83114064 84.887464,7.83114064 C83.650107,7.83114064 82.6472531,6.8290929 82.6472531,5.59348012 C82.6472531,4.35753176 83.650107,3.35581961 84.887464,3.35581961 C86.1244851,3.35581961 87.1276749,4.35753176 87.1276749,5.59348012" id="Fill-35"></path>
                    </g>
                </g>
            </g>
        </g>
    </g>
</svg>