<svg xmlns="http://www.w3.org/2000/svg" width="600" height="199" viewBox="0 0 600 199">
  <g fill="#147BD1" fill-rule="evenodd">
    <polyline points="126.888 155.966 151.764 .051 171.962 .051 147.086 155.966 126.888 155.966"/>
    <path d="M250.267775 152.964366C245.489706 183.310537 227.679461 199.132755 199.661712 199.132755 182.504228 199.132755 169.037808 192.848843 159.914517 182.225972L171.209023 168.3522C179.029586 177.457518 188.367206 181.792984 199.444591 181.792984 216.384954 181.792984 226.810975 172.038883 230.069892 152.964366L231.371922 145.3773 230.936981 145.3773C221.816482 153.831739 211.174039 158.3837 199.444591 158.3837 177.72546 158.3837 167.300138 147.545732 167.300138 126.953662 167.300138 123.052581 167.734381 118.933608 168.386444 114.380251L178.580682 50.2414649 198.560048 50.2414649 188.584328 114.380251C187.932265 117.848345 187.71654 120.666258 187.71654 123.267678 187.71654 134.973717 192.928154 140.827435 204.657601 140.827435 216.819197 140.827435 227.679461 133.456164 235.063686 120.666258L246.344229 50.2414649 266.542113 50.2414649 250.267775 152.964366M477.559769 69.3131878L481.832384 49.8475856 461.922832 49.8475856 444.978978 156.236219 465.178957 156.236219 474.149355 99.1279007C478.112695 78.1880442 493.664458 67.8005234 510.139163 67.8005234 512.142824 67.8005234 513.604729 67.8040153 515.214639 67.9576562L518.227113 49.0444627C499.18116 46.0903675 484.889539 55.7564745 477.559769 69.3131878"/>
    <polyline points="401.421 50.241 368.291 123.847 356.5 50.241 336.901 50.241 302.826 123.847 291.593 50.241 271.159 50.241 288.357 156.63 309.104 156.63 342.432 82.892 354.04 156.63 374.599 156.63 422.633 50.241 401.421 50.241"/>
    <polyline points="408.477 156.63 425.416 50.241 445.617 50.241 428.675 156.63 408.477 156.63"/>
    <path d="M450.777728 28.8986504C450.777728 35.2712554 445.587058 40.4391762 439.18721 40.4391762 432.785268 40.4391762 427.597391 35.2712554 427.597391 28.8986504 427.597391 22.5246486 432.785268 17.3581245 439.18721 17.3581245 445.587058 17.3581245 450.777728 22.5246486 450.777728 28.8986504M545.648649 140.610941C538.242084 140.757598 532.564811 138.598245 528.81929 134.209004 524.880385 129.594889 523.822005 122.00014 525.518485 111.634967L555.037932 111.634967C563.948291 111.634967 575.973052 110.437267 585.612967 104.591231 595.068573 98.8555373 599.862699 90.0847376 599.862699 78.5197689 599.862699 70.4997145 596.403416 62.6284124 590.377073 56.9220501 583.365655 50.2868588 573.330592 46.7803547 561.361683 46.7803547 517.570861 46.7803547 512.227997 77.7774041 507.934437 102.692369L506.404813 112.195757C504.561025 125.472425 507.037327 136.188877 513.978234 144.954788 520.432536 153.10823 531.483392 157.599433 545.097119 157.599433 589.177669 157.599433 593.175916 120.610389 593.175916 120.610389L574.61517 120.610389C574.61517 120.610389 573.730627 140.05504 545.648649 140.610941L545.648649 140.610941zM528.732023 91.8809393C531.989543 73.8679418 543.09625 63.9490257 560.009386 63.9490257 572.404161 63.9490257 580.413919 69.8229962 580.413919 78.9143466 580.413919 90.072167 572.477466 95.2694192 555.435872 95.2694192L528.100904 95.2694192 528.732023 91.8809393 528.732023 91.8809393zM77.3378376 68.0177158L5.2144065 68.0177158 8.17801015 49.5011952 80.2560622 49.5011952 81.6607195 40.6396078C85.7888205 14.8663487 103.108274.0197502298 129.395333.0511767752L143.835658.0511767752 140.999116 18.0969975 127.472656 18.0767449C112.854306 18.0592857 104.503855 25.2797091 101.86 41.382671L100.570535 49.5011952 128.438882 49.5011952 125.48575 68.0177158 97.6537071 68.0177158 82.451712 157.727234C78.3201204 183.503287 60.7221093 198.257002 34.2912329 198.224179L32.7699862 198.214402 35.8557643 178.660805 36.842934 178.651726C51.7216904 178.669186 59.7209768 172.381781 62.3494733 156.360528L72.2197744 98.1823108 0 98.1823108 2.96360364 79.6636951 75.3621019 79.6636951 77.3378376 68.0177158z"/>
  </g>
</svg>
