<svg xmlns="http://www.w3.org/2000/svg" width="116" height="39" viewBox="0 0 116 39"><g fill="#0084C0" fill-rule="evenodd"><path d="M24.525 30.232L29.333 0h3.904L28.43 30.232h-3.905M48.372 29.65c-.923 5.884-4.365 8.952-9.78 8.952-3.317 0-5.92-1.22-7.683-3.28l2.182-2.69c1.51 1.767 3.316 2.607 5.457 2.607 3.274 0 5.29-1.892 5.92-5.59l.25-1.472h-.084c-1.763 1.64-3.82 2.522-6.087 2.522-4.2 0-6.214-2.1-6.214-6.094 0-.756.084-1.555.21-2.438l1.97-12.436h3.862L36.45 22.168c-.126.673-.168 1.22-.168 1.723 0 2.27 1.008 3.406 3.275 3.406 2.35 0 4.45-1.43 5.877-3.91l2.18-13.654h3.904L48.372 29.65M92.304 13.43l.826-3.775h-3.848l-3.275 20.63h3.904l1.735-11.074c.766-4.06 3.772-6.074 6.956-6.074.39 0 .67 0 .982.03l.582-3.666c-3.68-.573-6.443 1.3-7.86 3.93M77.588 9.732l-6.404 14.272-2.28-14.272h-3.787L58.53 24.004 56.36 9.732h-3.95l3.324 20.628h4.01l6.442-14.297L68.43 30.36h3.974l9.284-20.628h-4.1M78.952 30.36l3.274-20.628h3.904L82.856 30.36h-3.904"/><path d="M102.195 17.806c.63-3.493 2.776-5.416 6.045-5.416 2.396 0 3.944 1.14 3.944 2.9 0 2.165-1.534 3.173-4.828 3.173h-5.283l.122-.657zm3.27 9.448c-1.432.03-2.53-.39-3.253-1.24-.762-.896-.966-2.368-.638-4.378h5.705c1.722 0 4.046-.232 5.91-1.366 1.827-1.112 2.753-2.813 2.753-5.055 0-1.555-.668-3.08-1.833-4.188-1.355-1.286-3.295-1.966-5.608-1.966-8.464 0-9.497 6.01-10.327 10.842l-.296 1.843c-.357 2.574.122 4.652 1.463 6.352 1.248 1.58 3.384 2.45 6.015 2.45 8.52 0 9.293-7.17 9.293-7.17h-3.587s-.17 3.77-5.598 3.877zM14.566 15.437l.382-2.258H1.008l.573-3.592h13.932l.272-1.718C16.582 2.873 19.93-.006 25.01 0h2.79l-.547 3.5-2.615-.005c-2.825-.003-4.44 1.397-4.95 4.52l-.25 1.573h5.387l-.57 3.59h-5.38l-2.94 17.395c-.797 4.998-4.198 7.86-9.307 7.852l-.294-.002.596-3.79.19-.003c2.877.004 4.423-1.215 4.93-4.322l1.91-11.28H0l.573-3.59h13.993zM87.128 5.593c0 1.236-1.004 2.238-2.24 2.238-1.238 0-2.24-1-2.24-2.237 0-1.235 1.002-2.237 2.24-2.237 1.236 0 2.24 1.002 2.24 2.237"/></g></svg>
